<svg width="495" height="541" viewBox="0 0 495 541" fill="none" xmlns="http://www.w3.org/2000/svg">
<rect x="40" y="427" width="414" height="114" rx="21" fill="#121415" fill-opacity="0.81"/>
<path d="M129.5 80C129.5 104.301 109.801 108 85.5 108C61.1995 108 36 122.301 36 98C36 73.6995 61.1995 36 85.5 36C109.801 36 129.5 55.6995 129.5 80Z" fill="#A3A7B0"/>
<rect x="102" y="309" width="151" height="148" fill="#4B78A0"/>
<path d="M102 376H253" stroke="#576379"/>
<line x1="102.02" y1="435.5" x2="253.02" y2="437.5" stroke="#779BBB" stroke-width="3"/>
<line x1="70" y1="455.5" x2="102" y2="455.5" stroke="#4D6D87" stroke-width="3"/>
<path d="M73 252H102V310H73V252Z" fill="#BDBFBF"/>
<path d="M73 310H102V457H70L73 310Z" fill="#406C90"/>
<path d="M73 376H102" stroke="#2F4C6E"/>
<line x1="70" y1="435.5" x2="102" y2="435.5" stroke="#779BBB" stroke-width="3"/>
<path d="M70 457H130L113.827 500.129C110.021 510.277 100.32 517 89.482 517H70V457Z" fill="#355774"/>
<line x1="70" y1="446.5" x2="253" y2="446.5" stroke="#7297B7" stroke-width="3"/>
<path d="M73 100H253V252H73V100Z" fill="#CFCFCF"/>
<g filter="url(#filter0_d_182_512)">
<line x1="164" y1="95.5" x2="81" y2="95.5" stroke="#BFC2C1" stroke-width="9"/>
</g>
<rect x="73" y="43" width="135" height="48" fill="#A3A7B0"/>
<path d="M433 41.5C433 50.0604 352.411 57 253 57C153.589 57 73 50.0604 73 41.5C73 32.9396 153.589 18 253 18C352.411 18 433 32.9396 433 41.5Z" fill="#A3A7B0"/>
<path d="M209.663 37.6409C210.359 31.0238 215.938 26 222.592 26H253V82H205L209.663 37.6409Z" fill="#BFC2C1"/>
<path d="M158 91C158 86.0294 162.029 82 167 82H253V135H158V91Z" fill="#BFC2C1"/>
<path d="M216 45C216 37.8203 221.82 32 229 32H253V82H229C221.82 82 216 76.1797 216 69V45Z" fill="#2D3236"/>
<path d="M253 91H184C176.82 91 171 96.8203 171 104V119C171 125.075 175.925 130 182 130H253V91Z" fill="#2D3032"/>
<path d="M216 468H253V510H238C225.85 510 216 500.15 216 488V468Z" fill="#1E2020"/>
<circle cx="216" cy="468" r="11" fill="#1E2020"/>
<line x1="70.0164" y1="455.5" x2="253.016" y2="457.5" stroke="#7297B7" stroke-width="3"/>
<path d="M216 455C216 451.134 219.134 448 223 448H253V468H216V455Z" fill="#705C21"/>
<path d="M376.5 80C376.5 104.301 396.199 108 420.5 108C444.801 108 470 122.301 470 98C470 73.6995 444.801 36 420.5 36C396.199 36 376.5 55.6995 376.5 80Z" fill="#A3A7B0"/>
<rect width="151" height="148" transform="matrix(-1 0 0 1 404 309)" fill="#4B78A0"/>
<path d="M404 376H253" stroke="#576379"/>
<line y1="-1.5" x2="151.013" y2="-1.5" transform="matrix(-0.999912 0.0132439 0.0132439 0.999912 404 437)" stroke="#779BBB" stroke-width="3"/>
<line y1="-1.5" x2="32" y2="-1.5" transform="matrix(-1 -1.54267e-09 -1.54267e-09 1 436 457)" stroke="#4D6D87" stroke-width="3"/>
<path d="M433 310H404V457H436L433 310Z" fill="#406C90"/>
<path d="M444 376H404" stroke="#2F4C6E"/>
<line y1="-1.5" x2="32" y2="-1.5" transform="matrix(-1 0 0 1 436 437)" stroke="#779BBB" stroke-width="3"/>
<path d="M436 457H376L392.173 500.129C395.979 510.277 405.68 517 416.518 517H436V457Z" fill="#355774"/>
<line y1="-1.5" x2="183" y2="-1.5" transform="matrix(-1 2.35286e-10 2.35286e-10 1 436 448)" stroke="#7297B7" stroke-width="3"/>
<path d="M425.5 100H253V252H433L425.5 100Z" fill="#CFCFCF"/>
<g filter="url(#filter1_d_182_512)">
<line y1="-4.5" x2="82" y2="-4.5" transform="matrix(1 0 0 -1 343 91)" stroke="#BFC2C1" stroke-width="9"/>
</g>
<rect width="135" height="48" transform="matrix(-1 0 0 1 433 43)" fill="#A3A7B0"/>
<path d="M296.337 37.6409C295.641 31.0238 290.062 26 283.408 26H253V82H301L296.337 37.6409Z" fill="#BFC2C1"/>
<path d="M348 91C348 86.0294 343.971 82 339 82H253V135H348V91Z" fill="#BFC2C1"/>
<path d="M288 45C288 37.8203 282.18 32 275 32H253V82H275C282.18 82 288 76.1797 288 69V45Z" fill="#2D3236"/>
<path d="M253 91H322C329.18 91 335 96.8203 335 104V119C335 125.075 330.075 130 324 130H253V91Z" fill="#2D3032"/>
<path d="M290 468H253V510H268C280.15 510 290 500.15 290 488V468Z" fill="#1E2020"/>
<circle cx="11" cy="11" r="11" transform="matrix(-1 0 0 1 301 457)" fill="#1E2020"/>
<line y1="-1.5" x2="183.011" y2="-1.5" transform="matrix(-0.99994 0.0109283 0.0109283 0.99994 436 457)" stroke="#7297B7" stroke-width="3"/>
<path d="M290 455C290 451.134 286.866 448 283 448H253V468H290V455Z" fill="#705C21"/>
<rect x="102" y="252" width="302" height="58" fill="#CFCFCF"/>
<path d="M76 104.5L91.4996 243L102 252H76L76 104.5Z" fill="#BDBFBF"/>
<path d="M92.2216 189.377C90.266 160.776 112.939 136.5 141.606 136.5H229C238.113 136.5 245.5 143.887 245.5 153V234C245.5 243.113 238.113 250.5 229 250.5H114.613C104.36 250.5 95.858 242.56 95.1586 232.33L92.2216 189.377Z" fill="#3B3838" stroke="black" stroke-width="3"/>
<rect x="425" y="95" width="31" height="215" fill="#BDBFBF"/>
<path d="M441 94H462.171C466.522 94 470.075 97.4775 470.169 101.828L475 326H441V94Z" fill="#BDBFBF"/>
<path d="M433 252H404V310H433V252Z" fill="#BDBFBF"/>
<path d="M430 94L413.5 244L404 255H430V94Z" fill="#BDBFBF"/>
<path d="M445 212C445 229.995 444.454 239.676 443.176 244.852C442.539 247.428 441.78 248.623 441.056 249.217C440.366 249.783 439.472 250 438 250C437.211 250 436.317 250.082 435.439 250.162C435.339 250.171 435.239 250.18 435.139 250.189C434.133 250.28 433.101 250.364 432.045 250.361C429.939 250.353 427.847 249.996 425.958 248.719C422.196 246.175 418.524 239.445 418.5 221.677C428.978 178.002 432.64 156.135 434.473 145.185C434.932 142.441 435.271 140.418 435.572 138.908C435.879 137.371 436.124 136.5 436.356 135.992C436.465 135.754 436.545 135.657 436.578 135.623C436.598 135.602 436.609 135.595 436.643 135.582C436.816 135.52 437.104 135.5 437.981 135.5C438.001 135.508 438.332 135.608 438.872 136.598C439.445 137.647 440.013 139.282 440.55 141.493C441.617 145.89 442.474 152.185 443.138 159.671C444.463 174.62 445 194.071 445 212Z" fill="#3B3838" stroke="black" stroke-width="3"/>
<path d="M447.657 142.107C447.596 140.133 449.18 138.5 451.155 138.5H462.791C466.844 138.5 470.163 141.72 470.287 145.771L473.343 245.893C473.404 247.867 471.82 249.5 469.845 249.5H459.179C454.586 249.5 450.824 245.851 450.683 241.259L447.657 142.107Z" fill="#3B3838" stroke="black" stroke-width="3"/>
<path d="M413.778 189.377C415.734 160.776 393.061 136.5 364.394 136.5H277C267.887 136.5 260.5 143.887 260.5 153V234C260.5 243.113 267.887 250.5 277 250.5H391.387C401.64 250.5 410.142 242.56 410.841 232.33L413.778 189.377Z" fill="#3B3838" stroke="black" stroke-width="3"/>
<path d="M432 310H475V478C475 499.539 457.539 517 436 517L432 310Z" fill="#406C90"/>
<g filter="url(#filter2_d_182_512)">
<line x1="425" y1="95.5" x2="472" y2="95.5" stroke="#BFC2C1" stroke-width="9"/>
</g>
<g filter="url(#filter3_d_182_512)">
<line x1="34" y1="95.5" x2="81" y2="95.5" stroke="#BFC2C1" stroke-width="9"/>
</g>
<path d="M33.6094 103H77.0022V121H34.0022L33.6094 103Z" fill="#BDBFBF"/>
<path d="M50 121H79V309H50V121Z" fill="#BDBFBF"/>
<g filter="url(#filter4_i_182_512)">
<path d="M32.9334 116H76L71 482L25 478L32.9334 116Z" fill="#354859"/>
</g>
<path d="M25 479L70 485.333V517L25 503V479Z" fill="#406C90"/>
<path d="M25 472L70 482V492L25 482V472Z" fill="#705C21"/>
<path d="M86.5 241.5C86.5 244.123 85.7383 246.435 84.5827 248.053C83.425 249.674 81.9609 250.5 80.5 250.5C79.0391 250.5 77.575 249.674 76.4173 248.053C75.2617 246.435 74.5 244.123 74.5 241.5C74.5 238.606 74.5359 223.003 75.0884 208.131C75.3649 200.689 75.7697 193.465 76.3594 188.114C76.6555 185.429 76.9919 183.276 77.3652 181.82C77.3798 181.763 77.3943 181.708 77.4088 181.654C77.4476 181.753 77.4873 181.857 77.5279 181.967C78.0682 183.432 78.6474 185.59 79.2427 188.275C80.4292 193.626 81.6328 200.852 82.7116 208.291C83.7894 215.722 84.7383 223.337 85.4175 229.453C86.102 235.617 86.5 240.152 86.5 241.5ZM77.9597 180.221C77.96 180.223 77.9499 180.238 77.9289 180.26C77.949 180.23 77.9595 180.219 77.9597 180.221Z" fill="#3B3838" stroke="#211E1E" stroke-width="3"/>
<rect x="42.2731" y="131.012" width="5" height="105" rx="2.5" transform="rotate(0.687479 42.2731 131.012)" fill="#3B3838" stroke="#2D3032" stroke-width="2"/>
<rect x="40.2731" y="253.012" width="5" height="105" rx="2.5" transform="rotate(0.687479 40.2731 253.012)" fill="#3B3838" stroke="#2D3236" stroke-width="2"/>
<rect x="59.2731" y="257.012" width="5" height="105" rx="2.5" transform="rotate(0.687479 59.2731 257.012)" fill="#3B3838" stroke="#2D3032" stroke-width="2"/>
<rect x="60.2731" y="131.012" width="5" height="105" rx="2.5" transform="rotate(0.687479 60.2731 131.012)" fill="#3B3838" stroke="#2D3032" stroke-width="2"/>
<circle cx="38.5" cy="458.5" r="3.5" fill="#2D3032"/>
<circle cx="56.5" cy="462.5" r="3.5" fill="#3B3838"/>
<circle cx="40.5" cy="428.5" r="3.5" fill="#2D3236"/>
<circle cx="57.5" cy="430.5" r="3.5" fill="#3B3838"/>
<path d="M32 439.647C32 437.201 34.1762 435.327 36.5952 435.691L44.5951 436.895C46.5524 437.19 48 438.871 48 440.851V444C48 446.209 46.2091 448 44 448H36C33.7909 448 32 446.209 32 444V439.647Z" fill="#2D3236"/>
<path d="M51 441.882C51 439.357 53.311 437.464 55.7868 437.96L59.7868 438.763C61.6554 439.138 63 440.779 63 442.685V446C63 448.209 61.2091 450 59 450H55C52.7909 450 51 448.209 51 446V441.882Z" fill="#2D3236"/>
<line x1="53.5" y1="121.007" x2="48.5" y2="479.007" stroke="black"/>
<circle cx="253" cy="391" r="26" fill="#43719A" stroke="black" stroke-width="2"/>
<path d="M474.785 372L432.022 376.41" stroke="#2F4C6E"/>
<circle cx="253" cy="391" r="21" fill="#777B80"/>
<circle cx="252.5" cy="391.5" r="2.5" fill="#0E0404"/>
<ellipse cx="381" cy="405.5" rx="21" ry="21.5" fill="#AEA9B3"/>
<ellipse cx="127" cy="405.5" rx="21" ry="21.5" fill="#AEA9B3"/>
<ellipse cx="127" cy="404.5" rx="17" ry="17.5" fill="#DFE1E2"/>
<ellipse cx="381" cy="405.5" rx="17" ry="17.5" fill="#DFE1E2"/>
<g filter="url(#filter5_d_182_512)">
<path d="M385.146 29.4543C384.308 35.75 368.179 31.3124 354.219 29.4543C340.259 27.5962 333.754 29.0214 334.592 22.7256C335.43 16.4299 347.541 12.516 361.501 14.374C375.461 16.2321 385.984 23.1585 385.146 29.4543Z" fill="#8A8F9D"/>
</g>
<path d="M226 11C226 4.92487 230.925 0 237 0H272C277.523 0 282 4.47715 282 10V18H226V11Z" fill="#34373B"/>
<rect y="138" width="34" height="60" rx="3" fill="#020202"/>
<rect y="186" width="36" height="7" rx="2" transform="rotate(-90 0 186)" fill="#536C12"/>
<path d="M0 176H19C20.1046 176 21 176.895 21 178V184C21 185.105 20.1046 186 19 186H2C0.89543 186 0 185.105 0 184V176Z" fill="#536C12"/>
<line x1="68" y1="112" x2="68" y2="143" stroke="black" stroke-width="4"/>
<line x1="70" y1="113.5" x2="21" y2="113.5" stroke="black" stroke-width="3"/>
<line x1="22.5" y1="115" x2="22.5" y2="153" stroke="black" stroke-width="3"/>
<line x1="21.6359" y1="119.641" x2="68.6359" y2="141.641" stroke="black" stroke-width="3"/>
<rect x="70" y="116" width="7" height="19" fill="black"/>
<g filter="url(#filter6_i_182_512)">
<rect x="218" y="34" width="68" height="46" rx="11" fill="#F4C434"/>
</g>
<path d="M263.4 72H242.16V68.715L250.575 60.21C252.195 58.59 253.56 57.15 254.67 55.89C255.78 54.63 256.62 53.4 257.19 52.2C257.76 50.97 258.045 49.635 258.045 48.195C258.045 46.425 257.52 45.09 256.47 44.19C255.42 43.26 254.055 42.795 252.375 42.795C250.815 42.795 249.435 43.065 248.235 43.605C247.065 44.145 245.865 44.895 244.635 45.855L242.52 43.2C243.36 42.48 244.275 41.835 245.265 41.265C246.285 40.695 247.38 40.245 248.55 39.915C249.75 39.585 251.025 39.42 252.375 39.42C254.385 39.42 256.11 39.765 257.55 40.455C258.99 41.145 260.1 42.135 260.88 43.425C261.69 44.685 262.095 46.2 262.095 47.97C262.095 49.23 261.9 50.43 261.51 51.57C261.12 52.68 260.565 53.775 259.845 54.855C259.125 55.935 258.255 57.03 257.235 58.14C256.215 59.25 255.09 60.405 253.86 61.605L247.155 68.22V68.4H263.4V72Z" fill="#508FC7"/>
<path d="M233.161 101.276H226.527V98.858H242.399V101.276H235.765V120H233.161V101.276ZM247.635 104.066V119.721C247.635 121.581 247.294 123.11 246.612 124.309C245.93 125.528 244.866 126.551 243.419 127.378L242.148 125.177C242.768 124.805 243.274 124.392 243.667 123.937C244.06 123.503 244.359 123.028 244.566 122.511C244.793 122.015 244.948 121.498 245.031 120.961C245.114 120.444 245.155 119.917 245.155 119.38V104.438L247.635 104.066ZM244.659 99.943C244.659 99.4677 244.814 99.075 245.124 98.765C245.455 98.4343 245.858 98.269 246.333 98.269C246.829 98.269 247.242 98.4343 247.573 98.765C247.924 99.075 248.1 99.4677 248.1 99.943C248.1 100.418 247.924 100.821 247.573 101.152C247.242 101.462 246.829 101.617 246.333 101.617C245.858 101.617 245.455 101.462 245.124 101.152C244.814 100.821 244.659 100.418 244.659 99.943ZM253.854 112.281C253.854 114.286 254.299 115.784 255.187 116.776C256.097 117.747 257.316 118.233 258.845 118.233C260.354 118.233 261.532 117.747 262.379 116.776C263.227 115.805 263.65 114.348 263.65 112.405C263.65 110.338 263.196 108.799 262.286 107.786C261.398 106.773 260.178 106.267 258.628 106.267C257.078 106.267 255.89 106.773 255.063 107.786C254.257 108.778 253.854 110.276 253.854 112.281ZM251.219 112.25C251.219 110.679 251.467 109.377 251.963 108.344C252.459 107.29 253.09 106.453 253.854 105.833C254.619 105.192 255.435 104.748 256.303 104.5C257.192 104.231 258.029 104.097 258.814 104.097C259.558 104.097 260.364 104.221 261.232 104.469C262.121 104.696 262.937 105.12 263.681 105.74C264.425 106.339 265.045 107.156 265.541 108.189C266.037 109.202 266.285 110.493 266.285 112.064C266.285 113.697 266.027 115.05 265.51 116.125C265.014 117.2 264.384 118.057 263.619 118.698C262.855 119.318 262.028 119.752 261.139 120C260.251 120.269 259.424 120.403 258.659 120.403C257.874 120.403 257.047 120.279 256.179 120.031C255.311 119.783 254.505 119.359 253.761 118.76C253.038 118.14 252.428 117.303 251.932 116.249C251.457 115.195 251.219 113.862 251.219 112.25ZM254.567 99.943C254.567 99.4677 254.722 99.075 255.032 98.765C255.363 98.4343 255.766 98.269 256.241 98.269C256.737 98.269 257.151 98.4343 257.481 98.765C257.833 99.075 258.008 99.4677 258.008 99.943C258.008 100.418 257.833 100.821 257.481 101.152C257.151 101.462 256.737 101.617 256.241 101.617C255.766 101.617 255.363 101.462 255.032 101.152C254.722 100.821 254.567 100.418 254.567 99.943ZM259.868 99.943C259.868 99.4677 260.023 99.075 260.333 98.765C260.664 98.4343 261.067 98.269 261.542 98.269C262.038 98.269 262.452 98.4343 262.782 98.765C263.134 99.075 263.309 99.4677 263.309 99.943C263.309 100.418 263.134 100.821 262.782 101.152C262.452 101.462 262.038 101.617 261.542 101.617C261.067 101.617 260.664 101.462 260.333 101.152C260.023 100.821 259.868 100.418 259.868 99.943ZM273.394 99.757V104.407H277.889V106.422H273.394V114.699C273.394 115.381 273.404 115.949 273.425 116.404C273.466 116.859 273.539 117.22 273.642 117.489C273.745 117.758 273.89 117.954 274.076 118.078C274.262 118.181 274.5 118.233 274.789 118.233C275.574 118.212 276.484 117.923 277.517 117.365L278.261 119.256C277.579 119.711 276.938 120.01 276.339 120.155C275.76 120.32 275.182 120.403 274.603 120.403C273.239 120.403 272.278 120.021 271.72 119.256C271.183 118.471 270.914 117.179 270.914 115.381V106.422H268.062V104.407H270.914V100.067L273.394 99.757Z" fill="#BACA8F"/>
<defs>
<filter id="filter0_d_182_512" x="81" y="91" width="83" height="12" filterUnits="userSpaceOnUse" color-interpolation-filters="sRGB">
<feFlood flood-opacity="0" result="BackgroundImageFix"/>
<feColorMatrix in="SourceAlpha" type="matrix" values="0 0 0 0 0 0 0 0 0 0 0 0 0 0 0 0 0 0 127 0" result="hardAlpha"/>
<feOffset dy="3"/>
<feComposite in2="hardAlpha" operator="out"/>
<feColorMatrix type="matrix" values="0 0 0 0 0 0 0 0 0 0 0 0 0 0 0 0 0 0 0.66 0"/>
<feBlend mode="normal" in2="BackgroundImageFix" result="effect1_dropShadow_182_512"/>
<feBlend mode="normal" in="SourceGraphic" in2="effect1_dropShadow_182_512" result="shape"/>
</filter>
<filter id="filter1_d_182_512" x="343" y="91" width="82" height="12" filterUnits="userSpaceOnUse" color-interpolation-filters="sRGB">
<feFlood flood-opacity="0" result="BackgroundImageFix"/>
<feColorMatrix in="SourceAlpha" type="matrix" values="0 0 0 0 0 0 0 0 0 0 0 0 0 0 0 0 0 0 127 0" result="hardAlpha"/>
<feOffset dy="3"/>
<feComposite in2="hardAlpha" operator="out"/>
<feColorMatrix type="matrix" values="0 0 0 0 0 0 0 0 0 0 0 0 0 0 0 0 0 0 0.66 0"/>
<feBlend mode="normal" in2="BackgroundImageFix" result="effect1_dropShadow_182_512"/>
<feBlend mode="normal" in="SourceGraphic" in2="effect1_dropShadow_182_512" result="shape"/>
</filter>
<filter id="filter2_d_182_512" x="425" y="91" width="47" height="12" filterUnits="userSpaceOnUse" color-interpolation-filters="sRGB">
<feFlood flood-opacity="0" result="BackgroundImageFix"/>
<feColorMatrix in="SourceAlpha" type="matrix" values="0 0 0 0 0 0 0 0 0 0 0 0 0 0 0 0 0 0 127 0" result="hardAlpha"/>
<feOffset dy="3"/>
<feComposite in2="hardAlpha" operator="out"/>
<feColorMatrix type="matrix" values="0 0 0 0 0 0 0 0 0 0 0 0 0 0 0 0 0 0 0.66 0"/>
<feBlend mode="normal" in2="BackgroundImageFix" result="effect1_dropShadow_182_512"/>
<feBlend mode="normal" in="SourceGraphic" in2="effect1_dropShadow_182_512" result="shape"/>
</filter>
<filter id="filter3_d_182_512" x="34" y="91" width="47" height="12" filterUnits="userSpaceOnUse" color-interpolation-filters="sRGB">
<feFlood flood-opacity="0" result="BackgroundImageFix"/>
<feColorMatrix in="SourceAlpha" type="matrix" values="0 0 0 0 0 0 0 0 0 0 0 0 0 0 0 0 0 0 127 0" result="hardAlpha"/>
<feOffset dy="3"/>
<feComposite in2="hardAlpha" operator="out"/>
<feColorMatrix type="matrix" values="0 0 0 0 0 0 0 0 0 0 0 0 0 0 0 0 0 0 0.66 0"/>
<feBlend mode="normal" in2="BackgroundImageFix" result="effect1_dropShadow_182_512"/>
<feBlend mode="normal" in="SourceGraphic" in2="effect1_dropShadow_182_512" result="shape"/>
</filter>
<filter id="filter4_i_182_512" x="25" y="116" width="53" height="370" filterUnits="userSpaceOnUse" color-interpolation-filters="sRGB">
<feFlood flood-opacity="0" result="BackgroundImageFix"/>
<feBlend mode="normal" in="SourceGraphic" in2="BackgroundImageFix" result="shape"/>
<feColorMatrix in="SourceAlpha" type="matrix" values="0 0 0 0 0 0 0 0 0 0 0 0 0 0 0 0 0 0 127 0" result="hardAlpha"/>
<feOffset dx="2" dy="4"/>
<feGaussianBlur stdDeviation="2"/>
<feComposite in2="hardAlpha" operator="arithmetic" k2="-1" k3="1"/>
<feColorMatrix type="matrix" values="0 0 0 0 0 0 0 0 0 0 0 0 0 0 0 0 0 0 0.68 0"/>
<feBlend mode="normal" in2="shape" result="effect1_innerShadow_182_512"/>
</filter>
<filter id="filter5_d_182_512" x="330.52" y="13.9102" width="58.6726" height="26.8027" filterUnits="userSpaceOnUse" color-interpolation-filters="sRGB">
<feFlood flood-opacity="0" result="BackgroundImageFix"/>
<feColorMatrix in="SourceAlpha" type="matrix" values="0 0 0 0 0 0 0 0 0 0 0 0 0 0 0 0 0 0 127 0" result="hardAlpha"/>
<feOffset dy="4"/>
<feGaussianBlur stdDeviation="2"/>
<feComposite in2="hardAlpha" operator="out"/>
<feColorMatrix type="matrix" values="0 0 0 0 0 0 0 0 0 0 0 0 0 0 0 0 0 0 0.55 0"/>
<feBlend mode="normal" in2="BackgroundImageFix" result="effect1_dropShadow_182_512"/>
<feBlend mode="normal" in="SourceGraphic" in2="effect1_dropShadow_182_512" result="shape"/>
</filter>
<filter id="filter6_i_182_512" x="218" y="34" width="68" height="50" filterUnits="userSpaceOnUse" color-interpolation-filters="sRGB">
<feFlood flood-opacity="0" result="BackgroundImageFix"/>
<feBlend mode="normal" in="SourceGraphic" in2="BackgroundImageFix" result="shape"/>
<feColorMatrix in="SourceAlpha" type="matrix" values="0 0 0 0 0 0 0 0 0 0 0 0 0 0 0 0 0 0 127 0" result="hardAlpha"/>
<feOffset dy="4"/>
<feGaussianBlur stdDeviation="2"/>
<feComposite in2="hardAlpha" operator="arithmetic" k2="-1" k3="1"/>
<feColorMatrix type="matrix" values="0 0 0 0 0 0 0 0 0 0 0 0 0 0 0 0 0 0 0.25 0"/>
<feBlend mode="normal" in2="shape" result="effect1_innerShadow_182_512"/>
</filter>
</defs>
</svg>
