<svg width="531" height="627" viewBox="0 0 531 627" fill="none" xmlns="http://www.w3.org/2000/svg">
<path d="M65 558C65 549.163 72.1634 542 81 542H483C491.837 542 499 549.163 499 558V598.691C499 606.404 493.497 613.019 485.913 614.423L419.444 626.733C418.483 626.91 417.508 627 416.531 627H149.926C148.977 627 148.03 626.916 147.097 626.748L78.171 614.366C70.5477 612.997 65 606.363 65 598.618V558Z" fill="#1C1D1E" fill-opacity="0.81"/>
<path d="M124.667 64H284V147H116L124.667 64Z" fill="#CFCFCF"/>
<path d="M50.3482 86.0096C51.8615 73.4499 62.5182 64 75.1687 64H126L117 147H43L50.3482 86.0096Z" fill="#BDBFBF"/>
<path d="M138 80C138 75.5817 141.582 72 146 72H284V139H146C141.582 139 138 135.418 138 131V80Z" fill="#2D3032"/>
<path d="M441.437 64H284V147H450L441.437 64Z" fill="#CFCFCF"/>
<path d="M514.793 86.0639C513.305 73.4802 502.638 64 489.966 64H440L449.362 147H522L514.793 86.0639Z" fill="#BDBFBF"/>
<path d="M428 80C428 75.5817 424.418 72 420 72H284V139H420C424.418 139 428 135.418 428 131V80Z" fill="#2D3032"/>
<path d="M116 147H284V351H153L116 147Z" fill="#CFCFCF"/>
<path d="M450 147H282V351H413L450 147Z" fill="#CFCFCF"/>
<path d="M43 147H116L154 351H43V147Z" fill="#BDBFBF"/>
<path d="M53.5 175C53.5 165.887 60.8873 158.5 70 158.5H98.1902C106.077 158.5 112.862 164.082 114.381 171.821L138.537 294.868C140.753 306.156 131.029 316.19 119.677 314.329L67.3309 305.748C59.3548 304.441 53.5 297.548 53.5 289.466V175Z" fill="#3B3838" stroke="black" stroke-width="3"/>
<path d="M522 147H449.658L412 351H522V147Z" fill="#BDBFBF"/>
<path d="M511.5 175C511.5 165.887 504.113 158.5 495 158.5H467.496C459.597 158.5 452.805 164.099 451.299 171.854L427.41 294.863C425.217 306.153 434.958 316.167 446.305 314.287L497.697 305.771C505.66 304.451 511.5 297.564 511.5 289.493V175Z" fill="#3B3838" stroke="black" stroke-width="3"/>
<path d="M132.094 170.907C130.902 164.453 135.857 158.5 142.42 158.5H421.72C428.242 158.5 433.186 164.384 432.063 170.808L407.759 309.808C406.881 314.833 402.517 318.5 397.416 318.5H168.095C163.032 318.5 158.69 314.886 157.77 309.907L132.094 170.907Z" fill="#494646" stroke="black" stroke-width="3"/>
<g filter="url(#filter0_d_182_513)">
<path d="M115 150H452L437.498 167.402C435.599 169.682 432.784 171 429.816 171H135.953C132.832 171 129.89 169.543 127.998 167.06L115 150Z" fill="#DFDEDE"/>
</g>
<line x1="116" y1="149.5" x2="450" y2="149.5" stroke="#3B3838"/>
<rect x="154" y="351" width="258" height="154" fill="#4B78A0"/>
<rect x="43" y="351" width="111" height="154" fill="#406C90"/>
<path d="M522.756 563.097C522.811 567.343 519.539 570.892 515.302 571.181L415.5 578L409 505H522.009L522.756 563.097Z" fill="#406C90"/>
<path d="M42.2436 563.097C42.189 567.343 45.4612 570.892 49.6976 571.181L149.5 578L156 505H42.9906L42.2436 563.097Z" fill="#406C90"/>
<rect x="411" y="351" width="111" height="154" fill="#406C90"/>
<path d="M154 505H412L417 578H149L154 505Z" fill="#4B78A0"/>
<g filter="url(#filter1_d_182_513)">
<line x1="154" y1="500.5" x2="412" y2="500.5" stroke="#497EAD" stroke-width="3"/>
</g>
<g filter="url(#filter2_d_182_513)">
<line x1="153" y1="485.5" x2="411" y2="485.5" stroke="#497EAD" stroke-width="3"/>
</g>
<g filter="url(#filter3_d_182_513)">
<line x1="43" y1="485.5" x2="154" y2="485.5" stroke="#3D6B94" stroke-width="3"/>
</g>
<g filter="url(#filter4_d_182_513)">
<line x1="43" y1="500.5" x2="154" y2="500.5" stroke="#3D6B94" stroke-width="3"/>
</g>
<g filter="url(#filter5_d_182_513)">
<line x1="411" y1="485.5" x2="522" y2="485.5" stroke="#3D6B94" stroke-width="3"/>
</g>
<g filter="url(#filter6_d_182_513)">
<line x1="411" y1="500.5" x2="522" y2="500.5" stroke="#3D6B94" stroke-width="3"/>
</g>
<g filter="url(#filter7_i_182_513)">
<rect x="196" y="401" width="166" height="68" rx="14" fill="#406C90"/>
</g>
<rect x="196.5" y="401.5" width="165" height="67" rx="13.5" stroke="#4B78A0"/>
<circle cx="241" cy="435" r="26" fill="#515F79"/>
<circle cx="319" cy="435" r="26" fill="#515F79"/>
<circle cx="241" cy="435" r="22" fill="white"/>
<circle cx="319" cy="435" r="22" fill="white"/>
<path d="M184 10C184 4.47715 188.477 0 194 0H374C379.523 0 384 4.47715 384 10V64H184V10Z" fill="url(#paint0_linear_182_513)"/>
<rect y="189" width="40" height="60" rx="5" fill="#020202"/>
<path d="M3 235H35C36.1046 235 37 235.895 37 237V244C37 245.105 36.1046 246 35 246H5C3.89543 246 3 245.105 3 244V235Z" fill="#536C12"/>
<rect x="3" y="238" width="32" height="12" rx="2" transform="rotate(-90 3 238)" fill="#536C12"/>
<line x1="109" y1="159" x2="20" y2="159" stroke="black" stroke-width="4"/>
<line x1="22" y1="157" x2="22" y2="203" stroke="black" stroke-width="4"/>
<line x1="53.0235" y1="158.097" x2="23.0235" y2="186.097" stroke="black" stroke-width="3"/>
<line x1="43.0205" y1="146.5" x2="116.021" y2="149.5" stroke="#7E7C7C"/>
<line x1="449.979" y1="149.5" x2="521.979" y2="146.5" stroke="#7E7C7C"/>
<g filter="url(#filter8_i_182_513)">
<rect x="142" y="75" width="69" height="60" rx="6" fill="#6D0370"/>
</g>
<rect x="142.5" y="75.5" width="68" height="59" rx="5.5" stroke="black"/>
<path d="M173.245 84.732C175.639 84.732 177.748 85.112 179.572 85.872C181.396 86.594 182.821 87.677 183.847 89.121C184.911 90.565 185.443 92.351 185.443 94.479C185.443 96.113 185.082 97.538 184.36 98.754C183.676 99.97 182.745 101.053 181.567 102.003C180.389 102.915 179.097 103.732 177.691 104.454C179.363 105.252 180.883 106.164 182.251 107.19C183.619 108.178 184.702 109.337 185.5 110.667C186.336 111.997 186.754 113.593 186.754 115.455C186.754 117.735 186.203 119.711 185.101 121.383C183.999 123.017 182.441 124.29 180.427 125.202C178.451 126.114 176.114 126.57 173.416 126.57C170.49 126.57 168.001 126.133 165.949 125.259C163.935 124.385 162.396 123.15 161.332 121.554C160.306 119.92 159.793 117.944 159.793 115.626C159.793 113.764 160.173 112.149 160.933 110.781C161.731 109.413 162.776 108.235 164.068 107.247C165.36 106.259 166.747 105.423 168.229 104.739C166.899 103.979 165.683 103.124 164.581 102.174C163.517 101.186 162.662 100.065 162.016 98.811C161.408 97.557 161.104 96.094 161.104 94.422C161.104 92.332 161.636 90.584 162.7 89.178C163.764 87.734 165.208 86.632 167.032 85.872C168.856 85.112 170.927 84.732 173.245 84.732ZM164.695 115.683C164.695 117.659 165.398 119.312 166.804 120.642C168.21 121.934 170.376 122.58 173.302 122.58C175.164 122.58 176.722 122.276 177.976 121.668C179.23 121.06 180.18 120.224 180.826 119.16C181.51 118.096 181.852 116.88 181.852 115.512C181.852 114.182 181.491 113.023 180.769 112.035C180.085 111.009 179.097 110.097 177.805 109.299C176.551 108.501 175.05 107.779 173.302 107.133L172.39 106.791C170.718 107.513 169.312 108.292 168.172 109.128C167.032 109.964 166.158 110.914 165.55 111.978C164.98 113.042 164.695 114.277 164.695 115.683ZM173.188 88.779C171.098 88.779 169.369 89.292 168.001 90.318C166.671 91.306 166.006 92.75 166.006 94.65C166.006 96.056 166.329 97.234 166.975 98.184C167.659 99.134 168.571 99.951 169.711 100.635C170.851 101.281 172.105 101.908 173.473 102.516C174.803 101.946 175.981 101.319 177.007 100.635C178.071 99.951 178.907 99.134 179.515 98.184C180.161 97.196 180.484 96.018 180.484 94.65C180.484 92.75 179.819 91.306 178.489 90.318C177.159 89.292 175.392 88.779 173.188 88.779Z" fill="#EBE7E7"/>
<path d="M242.817 97.834C241.908 97.648 240.936 97.4723 239.903 97.307C238.89 97.1417 237.712 97.0383 236.369 96.997C235.005 97.0177 233.827 97.2243 232.835 97.617C231.843 98.0097 231.027 98.578 230.386 99.322C229.766 100.045 229.301 100.913 228.991 101.926C228.681 102.939 228.526 104.055 228.526 105.274C228.526 106.845 228.722 108.188 229.115 109.304C229.528 110.42 230.086 111.34 230.789 112.063C231.512 112.766 232.349 113.282 233.3 113.613C234.251 113.944 235.274 114.109 236.369 114.109C237.072 114.109 237.702 114.068 238.26 113.985C238.839 113.902 239.335 113.809 239.748 113.706C240.182 113.582 240.575 113.448 240.926 113.303V107.63H237.051V105.305H243.561V114.574C242.838 115.049 241.835 115.483 240.554 115.876C239.293 116.248 237.898 116.424 236.369 116.403C234.964 116.403 233.61 116.238 232.308 115.907C231.027 115.576 229.88 114.998 228.867 114.171C227.875 113.324 227.079 112.177 226.48 110.73C225.881 109.283 225.581 107.454 225.581 105.243C225.581 103.445 225.86 101.885 226.418 100.562C226.976 99.2187 227.73 98.113 228.681 97.245C229.652 96.3563 230.768 95.695 232.029 95.261C233.31 94.8063 234.664 94.579 236.09 94.579C237.02 94.579 237.919 94.6307 238.787 94.734C239.655 94.8167 240.451 94.92 241.174 95.044C241.897 95.1473 242.59 95.2817 243.251 95.447L242.817 97.834ZM259.228 115.628C258.753 115.773 258.257 115.897 257.74 116C257.244 116.103 256.686 116.196 256.066 116.279C255.467 116.362 254.836 116.403 254.175 116.403C253.142 116.403 252.181 116.258 251.292 115.969C250.403 115.68 249.628 115.215 248.967 114.574C248.306 113.933 247.779 113.107 247.386 112.094C247.014 111.061 246.828 109.8 246.828 108.312C246.828 106.969 247.014 105.791 247.386 104.778C247.758 103.745 248.264 102.887 248.905 102.205C249.566 101.502 250.331 100.975 251.199 100.624C252.088 100.273 253.049 100.097 254.082 100.097C255.095 100.097 255.973 100.293 256.717 100.686C257.461 101.079 258.071 101.616 258.546 102.298C259.042 102.959 259.404 103.745 259.631 104.654C259.879 105.543 260.003 106.483 260.003 107.475L259.538 108.839H249.525C249.525 109.48 249.608 110.12 249.773 110.761C249.938 111.402 250.217 111.98 250.61 112.497C251.023 113.014 251.55 113.437 252.191 113.768C252.852 114.078 253.669 114.233 254.64 114.233C255.26 114.233 255.828 114.202 256.345 114.14C256.862 114.057 257.306 113.975 257.678 113.892C258.071 113.789 258.432 113.675 258.763 113.551L259.228 115.628ZM257.43 106.855C257.43 106.71 257.399 106.39 257.337 105.894C257.275 105.398 257.13 104.881 256.903 104.344C256.676 103.807 256.324 103.331 255.849 102.918C255.374 102.484 254.743 102.267 253.958 102.267C253.09 102.267 252.377 102.453 251.819 102.825C251.261 103.176 250.817 103.6 250.486 104.096C250.155 104.592 249.928 105.098 249.804 105.615C249.68 106.132 249.618 106.545 249.618 106.855H257.43ZM265.145 108.281C265.145 110.286 265.589 111.784 266.478 112.776C267.387 113.747 268.606 114.233 270.136 114.233C271.644 114.233 272.822 113.747 273.67 112.776C274.517 111.805 274.941 110.348 274.941 108.405C274.941 106.338 274.486 104.799 273.577 103.786C272.688 102.773 271.469 102.267 269.919 102.267C268.369 102.267 267.18 102.773 266.354 103.786C265.548 104.778 265.145 106.276 265.145 108.281ZM262.51 108.25C262.51 106.679 262.758 105.377 263.254 104.344C263.75 103.29 264.38 102.453 265.145 101.833C265.909 101.192 266.726 100.748 267.594 100.5C268.482 100.231 269.319 100.097 270.105 100.097C270.849 100.097 271.655 100.221 272.523 100.469C273.411 100.696 274.228 101.12 274.972 101.74C275.716 102.339 276.336 103.156 276.832 104.189C277.328 105.202 277.576 106.493 277.576 108.064C277.576 109.697 277.317 111.05 276.801 112.125C276.305 113.2 275.674 114.057 274.91 114.698C274.145 115.318 273.318 115.752 272.43 116C271.541 116.269 270.714 116.403 269.95 116.403C269.164 116.403 268.338 116.279 267.47 116.031C266.602 115.783 265.796 115.359 265.052 114.76C264.328 114.14 263.719 113.303 263.223 112.249C262.747 111.195 262.51 109.862 262.51 108.25ZM293.392 117.488C293.392 118.253 293.31 118.997 293.144 119.72C292.979 120.443 292.659 121.084 292.183 121.642C291.729 122.221 291.078 122.675 290.23 123.006C289.404 123.357 288.308 123.533 286.944 123.533C286.076 123.512 285.322 123.461 284.681 123.378C284.041 123.295 283.431 123.171 282.852 123.006C282.274 122.861 281.747 122.686 281.271 122.479L281.922 120.309C282.728 120.66 283.545 120.929 284.371 121.115C285.219 121.301 285.973 121.394 286.634 121.394C287.358 121.394 287.988 121.322 288.525 121.177C289.063 121.032 289.507 120.784 289.858 120.433C290.23 120.102 290.499 119.658 290.664 119.1C290.85 118.542 290.943 117.85 290.943 117.023V114.76C290.509 115.049 290.055 115.318 289.579 115.566C289.125 115.793 288.629 115.99 288.091 116.155C287.575 116.32 287.068 116.403 286.572 116.403C284.65 116.403 283.131 115.731 282.015 114.388C280.899 113.024 280.341 110.999 280.341 108.312C280.341 106.762 280.579 105.47 281.054 104.437C281.55 103.383 282.17 102.536 282.914 101.895C283.658 101.254 284.475 100.8 285.363 100.531C286.252 100.242 287.099 100.097 287.905 100.097C288.959 100.097 289.92 100.19 290.788 100.376C291.677 100.541 292.545 100.676 293.392 100.779V117.488ZM286.851 114.233C287.306 114.233 287.771 114.15 288.246 113.985C288.722 113.82 289.176 113.623 289.61 113.396C290.065 113.169 290.509 112.9 290.943 112.59V102.701C290.695 102.639 290.406 102.567 290.075 102.484C289.786 102.443 289.455 102.401 289.083 102.36C288.711 102.298 288.319 102.267 287.905 102.267C287.037 102.267 286.293 102.422 285.673 102.732C285.053 103.042 284.537 103.466 284.123 104.003C283.731 104.54 283.441 105.171 283.255 105.894C283.069 106.617 282.976 107.382 282.976 108.188C282.976 108.911 283.049 109.635 283.193 110.358C283.359 111.081 283.607 111.732 283.937 112.311C284.268 112.89 284.671 113.355 285.146 113.706C285.622 114.057 286.19 114.233 286.851 114.233ZM297.89 102.918C297.89 102.443 297.838 101.699 297.735 100.686L300.029 100.376L300.277 102.639H300.308C300.68 102.164 301.042 101.75 301.393 101.399C301.744 101.048 302.106 100.748 302.478 100.5C302.871 100.231 303.243 100.097 303.594 100.097C304.069 100.076 304.731 100.128 305.578 100.252L305.02 102.639C304.338 102.515 303.863 102.463 303.594 102.484C303.243 102.484 302.871 102.649 302.478 102.98C302.085 103.311 301.744 103.662 301.455 104.034C301.083 104.489 300.721 105.005 300.37 105.584V116H297.89V102.918ZM316.771 108.839C316.358 108.86 315.965 108.88 315.593 108.901C315.221 108.922 314.849 108.953 314.477 108.994C314.126 109.015 313.806 109.046 313.516 109.087C312.028 109.273 310.974 109.604 310.354 110.079C309.734 110.534 309.424 111.195 309.424 112.063C309.424 112.786 309.641 113.334 310.075 113.706C310.53 114.057 311.119 114.233 311.842 114.233C312.834 114.233 313.713 114.068 314.477 113.737C315.263 113.386 316.027 112.931 316.771 112.373V108.839ZM316.74 114.543C315.769 115.101 314.86 115.556 314.012 115.907C313.186 116.238 312.287 116.403 311.315 116.403C309.931 116.403 308.825 116.072 307.998 115.411C307.192 114.729 306.789 113.613 306.789 112.063C306.789 111.257 306.996 110.554 307.409 109.955C307.823 109.356 308.36 108.86 309.021 108.467C309.703 108.054 310.468 107.733 311.315 107.506C312.163 107.279 313.031 107.134 313.919 107.072C314.291 107.031 314.777 107 315.376 106.979C315.976 106.938 316.441 106.907 316.771 106.886C316.771 106.163 316.751 105.522 316.709 104.964C316.668 104.385 316.544 103.9 316.337 103.507C316.131 103.094 315.821 102.784 315.407 102.577C315.015 102.37 314.446 102.267 313.702 102.267C313.103 102.267 312.524 102.308 311.966 102.391C311.408 102.453 310.912 102.525 310.478 102.608C309.962 102.711 309.486 102.825 309.052 102.949L308.556 100.81C309.073 100.686 309.631 100.572 310.23 100.469C310.747 100.366 311.346 100.283 312.028 100.221C312.71 100.138 313.444 100.097 314.229 100.097C315.283 100.097 316.131 100.252 316.771 100.562C317.433 100.872 317.939 101.296 318.29 101.833C318.662 102.35 318.91 102.949 319.034 103.631C319.179 104.292 319.251 104.995 319.251 105.739V113.179C319.251 113.468 319.251 113.778 319.251 114.109C319.272 114.419 319.293 114.729 319.313 115.039C319.355 115.349 319.396 115.669 319.437 116L317.05 116.248L316.74 114.543ZM324.834 102.422H321.951V100.407H324.803C324.803 98.9603 324.999 97.741 325.392 96.749C325.805 95.7363 326.342 94.92 327.004 94.3C327.665 93.6593 328.409 93.2047 329.236 92.936C330.083 92.6467 330.93 92.502 331.778 92.502C333.576 92.502 335.539 93.1737 337.668 94.517L336.552 96.377C334.878 95.2403 333.297 94.672 331.809 94.672C330.961 94.672 330.248 94.827 329.67 95.137C329.112 95.4263 328.647 95.8293 328.275 96.346C327.923 96.8627 327.665 97.4723 327.5 98.175C327.355 98.857 327.283 99.601 327.283 100.407H331.654C332.439 100.407 333.297 100.386 334.227 100.345C335.157 100.304 336.293 100.221 337.637 100.097V116H335.157V102.422H327.314V116H324.834V102.422ZM341.778 106.886H350.055V109.18H341.778V106.886ZM354.198 92.781L356.678 92.502V106.483L363.591 100.407H367.001L360.243 106.328L367.249 116H364.118L358.414 107.909L356.678 109.428V116H354.198V92.781ZM378.408 108.839C377.995 108.86 377.602 108.88 377.23 108.901C376.858 108.922 376.486 108.953 376.114 108.994C375.763 109.015 375.442 109.046 375.153 109.087C373.665 109.273 372.611 109.604 371.991 110.079C371.371 110.534 371.061 111.195 371.061 112.063C371.061 112.786 371.278 113.334 371.712 113.706C372.167 114.057 372.756 114.233 373.479 114.233C374.471 114.233 375.349 114.068 376.114 113.737C376.899 113.386 377.664 112.931 378.408 112.373V108.839ZM378.377 114.543C377.406 115.101 376.496 115.556 375.649 115.907C374.822 116.238 373.923 116.403 372.952 116.403C371.567 116.403 370.462 116.072 369.635 115.411C368.829 114.729 368.426 113.613 368.426 112.063C368.426 111.257 368.633 110.554 369.046 109.955C369.459 109.356 369.997 108.86 370.658 108.467C371.34 108.054 372.105 107.733 372.952 107.506C373.799 107.279 374.667 107.134 375.556 107.072C375.928 107.031 376.414 107 377.013 106.979C377.612 106.938 378.077 106.907 378.408 106.886C378.408 106.163 378.387 105.522 378.346 104.964C378.305 104.385 378.181 103.9 377.974 103.507C377.767 103.094 377.457 102.784 377.044 102.577C376.651 102.37 376.083 102.267 375.339 102.267C374.74 102.267 374.161 102.308 373.603 102.391C373.045 102.453 372.549 102.525 372.115 102.608C371.598 102.711 371.123 102.825 370.689 102.949L370.193 100.81C370.71 100.686 371.268 100.572 371.867 100.469C372.384 100.366 372.983 100.283 373.665 100.221C374.347 100.138 375.081 100.097 375.866 100.097C376.92 100.097 377.767 100.252 378.408 100.562C379.069 100.872 379.576 101.296 379.927 101.833C380.299 102.35 380.547 102.949 380.671 103.631C380.816 104.292 380.888 104.995 380.888 105.739V113.179C380.888 113.468 380.888 113.778 380.888 114.109C380.909 114.419 380.929 114.729 380.95 115.039C380.991 115.349 381.033 115.669 381.074 116L378.687 116.248L378.377 114.543ZM371.061 95.943C371.061 95.4677 371.216 95.075 371.526 94.765C371.857 94.4343 372.26 94.269 372.735 94.269C373.231 94.269 373.644 94.4343 373.975 94.765C374.326 95.075 374.502 95.4677 374.502 95.943C374.502 96.4183 374.326 96.8213 373.975 97.152C373.644 97.462 373.231 97.617 372.735 97.617C372.26 97.617 371.857 97.462 371.526 97.152C371.216 96.8213 371.061 96.4183 371.061 95.943ZM376.362 95.943C376.362 95.4677 376.517 95.075 376.827 94.765C377.158 94.4343 377.561 94.269 378.036 94.269C378.532 94.269 378.945 94.4343 379.276 94.765C379.627 95.075 379.803 95.4677 379.803 95.943C379.803 96.4183 379.627 96.8213 379.276 97.152C378.945 97.462 378.532 97.617 378.036 97.617C377.561 97.617 377.158 97.462 376.827 97.152C376.517 96.8213 376.362 96.4183 376.362 95.943ZM394.93 102.67C394.579 102.587 394.093 102.505 393.473 102.422C392.853 102.319 392.223 102.267 391.582 102.267C390.652 102.267 389.888 102.453 389.288 102.825C388.71 103.197 388.255 103.683 387.924 104.282C387.594 104.861 387.366 105.512 387.242 106.235C387.118 106.938 387.056 107.63 387.056 108.312C387.056 109.366 387.191 110.275 387.459 111.04C387.728 111.784 388.079 112.394 388.513 112.869C388.968 113.344 389.485 113.696 390.063 113.923C390.642 114.13 391.252 114.233 391.892 114.233C392.326 114.233 392.74 114.212 393.132 114.171C393.546 114.109 393.918 114.047 394.248 113.985C394.6 113.902 394.93 113.809 395.24 113.706L395.736 115.783C395.302 115.907 394.899 116.01 394.527 116.093C394.155 116.176 393.711 116.248 393.194 116.31C392.698 116.372 392.161 116.403 391.582 116.403C390.446 116.403 389.433 116.258 388.544 115.969C387.656 115.68 386.901 115.215 386.281 114.574C385.682 113.933 385.217 113.096 384.886 112.063C384.576 111.03 384.421 109.769 384.421 108.281C384.421 106.834 384.618 105.594 385.01 104.561C385.424 103.507 385.961 102.66 386.622 102.019C387.284 101.358 388.038 100.872 388.885 100.562C389.753 100.252 390.652 100.097 391.582 100.097C392.078 100.097 392.554 100.128 393.008 100.19C393.484 100.231 393.897 100.283 394.248 100.345C394.662 100.428 395.054 100.51 395.426 100.593L394.93 102.67ZM398.791 92.781L401.271 92.502V106.483L408.184 100.407H411.594L404.836 106.328L411.842 116H408.711L403.007 107.909L401.271 109.428V116H398.791V92.781Z" fill="#BACA8F"/>
<defs>
<filter id="filter0_d_182_513" x="111" y="150" width="345" height="29" filterUnits="userSpaceOnUse" color-interpolation-filters="sRGB">
<feFlood flood-opacity="0" result="BackgroundImageFix"/>
<feColorMatrix in="SourceAlpha" type="matrix" values="0 0 0 0 0 0 0 0 0 0 0 0 0 0 0 0 0 0 127 0" result="hardAlpha"/>
<feOffset dy="4"/>
<feGaussianBlur stdDeviation="2"/>
<feComposite in2="hardAlpha" operator="out"/>
<feColorMatrix type="matrix" values="0 0 0 0 0 0 0 0 0 0 0 0 0 0 0 0 0 0 0.49 0"/>
<feBlend mode="normal" in2="BackgroundImageFix" result="effect1_dropShadow_182_513"/>
<feBlend mode="normal" in="SourceGraphic" in2="effect1_dropShadow_182_513" result="shape"/>
</filter>
<filter id="filter1_d_182_513" x="150" y="499" width="266" height="11" filterUnits="userSpaceOnUse" color-interpolation-filters="sRGB">
<feFlood flood-opacity="0" result="BackgroundImageFix"/>
<feColorMatrix in="SourceAlpha" type="matrix" values="0 0 0 0 0 0 0 0 0 0 0 0 0 0 0 0 0 0 127 0" result="hardAlpha"/>
<feOffset dy="4"/>
<feGaussianBlur stdDeviation="2"/>
<feComposite in2="hardAlpha" operator="out"/>
<feColorMatrix type="matrix" values="0 0 0 0 0 0 0 0 0 0 0 0 0 0 0 0 0 0 0.46 0"/>
<feBlend mode="normal" in2="BackgroundImageFix" result="effect1_dropShadow_182_513"/>
<feBlend mode="normal" in="SourceGraphic" in2="effect1_dropShadow_182_513" result="shape"/>
</filter>
<filter id="filter2_d_182_513" x="149" y="484" width="266" height="11" filterUnits="userSpaceOnUse" color-interpolation-filters="sRGB">
<feFlood flood-opacity="0" result="BackgroundImageFix"/>
<feColorMatrix in="SourceAlpha" type="matrix" values="0 0 0 0 0 0 0 0 0 0 0 0 0 0 0 0 0 0 127 0" result="hardAlpha"/>
<feOffset dy="4"/>
<feGaussianBlur stdDeviation="2"/>
<feComposite in2="hardAlpha" operator="out"/>
<feColorMatrix type="matrix" values="0 0 0 0 0 0 0 0 0 0 0 0 0 0 0 0 0 0 0.46 0"/>
<feBlend mode="normal" in2="BackgroundImageFix" result="effect1_dropShadow_182_513"/>
<feBlend mode="normal" in="SourceGraphic" in2="effect1_dropShadow_182_513" result="shape"/>
</filter>
<filter id="filter3_d_182_513" x="39" y="484" width="119" height="11" filterUnits="userSpaceOnUse" color-interpolation-filters="sRGB">
<feFlood flood-opacity="0" result="BackgroundImageFix"/>
<feColorMatrix in="SourceAlpha" type="matrix" values="0 0 0 0 0 0 0 0 0 0 0 0 0 0 0 0 0 0 127 0" result="hardAlpha"/>
<feOffset dy="4"/>
<feGaussianBlur stdDeviation="2"/>
<feComposite in2="hardAlpha" operator="out"/>
<feColorMatrix type="matrix" values="0 0 0 0 0 0 0 0 0 0 0 0 0 0 0 0 0 0 0.47 0"/>
<feBlend mode="normal" in2="BackgroundImageFix" result="effect1_dropShadow_182_513"/>
<feBlend mode="normal" in="SourceGraphic" in2="effect1_dropShadow_182_513" result="shape"/>
</filter>
<filter id="filter4_d_182_513" x="39" y="499" width="119" height="11" filterUnits="userSpaceOnUse" color-interpolation-filters="sRGB">
<feFlood flood-opacity="0" result="BackgroundImageFix"/>
<feColorMatrix in="SourceAlpha" type="matrix" values="0 0 0 0 0 0 0 0 0 0 0 0 0 0 0 0 0 0 127 0" result="hardAlpha"/>
<feOffset dy="4"/>
<feGaussianBlur stdDeviation="2"/>
<feComposite in2="hardAlpha" operator="out"/>
<feColorMatrix type="matrix" values="0 0 0 0 0 0 0 0 0 0 0 0 0 0 0 0 0 0 0.47 0"/>
<feBlend mode="normal" in2="BackgroundImageFix" result="effect1_dropShadow_182_513"/>
<feBlend mode="normal" in="SourceGraphic" in2="effect1_dropShadow_182_513" result="shape"/>
</filter>
<filter id="filter5_d_182_513" x="407" y="484" width="119" height="11" filterUnits="userSpaceOnUse" color-interpolation-filters="sRGB">
<feFlood flood-opacity="0" result="BackgroundImageFix"/>
<feColorMatrix in="SourceAlpha" type="matrix" values="0 0 0 0 0 0 0 0 0 0 0 0 0 0 0 0 0 0 127 0" result="hardAlpha"/>
<feOffset dy="4"/>
<feGaussianBlur stdDeviation="2"/>
<feComposite in2="hardAlpha" operator="out"/>
<feColorMatrix type="matrix" values="0 0 0 0 0 0 0 0 0 0 0 0 0 0 0 0 0 0 0.47 0"/>
<feBlend mode="normal" in2="BackgroundImageFix" result="effect1_dropShadow_182_513"/>
<feBlend mode="normal" in="SourceGraphic" in2="effect1_dropShadow_182_513" result="shape"/>
</filter>
<filter id="filter6_d_182_513" x="407" y="499" width="119" height="11" filterUnits="userSpaceOnUse" color-interpolation-filters="sRGB">
<feFlood flood-opacity="0" result="BackgroundImageFix"/>
<feColorMatrix in="SourceAlpha" type="matrix" values="0 0 0 0 0 0 0 0 0 0 0 0 0 0 0 0 0 0 127 0" result="hardAlpha"/>
<feOffset dy="4"/>
<feGaussianBlur stdDeviation="2"/>
<feComposite in2="hardAlpha" operator="out"/>
<feColorMatrix type="matrix" values="0 0 0 0 0 0 0 0 0 0 0 0 0 0 0 0 0 0 0.47 0"/>
<feBlend mode="normal" in2="BackgroundImageFix" result="effect1_dropShadow_182_513"/>
<feBlend mode="normal" in="SourceGraphic" in2="effect1_dropShadow_182_513" result="shape"/>
</filter>
<filter id="filter7_i_182_513" x="196" y="401" width="166" height="72" filterUnits="userSpaceOnUse" color-interpolation-filters="sRGB">
<feFlood flood-opacity="0" result="BackgroundImageFix"/>
<feBlend mode="normal" in="SourceGraphic" in2="BackgroundImageFix" result="shape"/>
<feColorMatrix in="SourceAlpha" type="matrix" values="0 0 0 0 0 0 0 0 0 0 0 0 0 0 0 0 0 0 127 0" result="hardAlpha"/>
<feMorphology radius="2" operator="erode" in="SourceAlpha" result="effect1_innerShadow_182_513"/>
<feOffset dy="4"/>
<feGaussianBlur stdDeviation="2"/>
<feComposite in2="hardAlpha" operator="arithmetic" k2="-1" k3="1"/>
<feColorMatrix type="matrix" values="0 0 0 0 0 0 0 0 0 0 0 0 0 0 0 0 0 0 0.4 0"/>
<feBlend mode="normal" in2="shape" result="effect1_innerShadow_182_513"/>
</filter>
<filter id="filter8_i_182_513" x="142" y="75" width="69" height="64" filterUnits="userSpaceOnUse" color-interpolation-filters="sRGB">
<feFlood flood-opacity="0" result="BackgroundImageFix"/>
<feBlend mode="normal" in="SourceGraphic" in2="BackgroundImageFix" result="shape"/>
<feColorMatrix in="SourceAlpha" type="matrix" values="0 0 0 0 0 0 0 0 0 0 0 0 0 0 0 0 0 0 127 0" result="hardAlpha"/>
<feOffset dy="4"/>
<feGaussianBlur stdDeviation="2"/>
<feComposite in2="hardAlpha" operator="arithmetic" k2="-1" k3="1"/>
<feColorMatrix type="matrix" values="0 0 0 0 0 0 0 0 0 0 0 0 0 0 0 0 0 0 0.25 0"/>
<feBlend mode="normal" in2="shape" result="effect1_innerShadow_182_513"/>
</filter>
<linearGradient id="paint0_linear_182_513" x1="284" y1="0" x2="284" y2="64" gradientUnits="userSpaceOnUse">
<stop offset="0.25" stop-color="#A1A2A2"/>
<stop offset="0.765625" stop-color="#7D7D7D"/>
</linearGradient>
</defs>
</svg>
