<svg width="413" height="538" viewBox="0 0 413 538" fill="none" xmlns="http://www.w3.org/2000/svg">
<path opacity="0.81" d="M22.1074 474.969C19.8297 470.969 22.7183 466 27.3213 466H354.428C359.086 466 361.968 471.077 359.579 475.076L327.529 528.742C324.1 534.484 317.905 538 311.217 538H72.5331C63.5483 538 55.2545 533.179 50.8085 525.371L22.1074 474.969Z" fill="#1E2020"/>
<path d="M15.0781 116.076L42.6668 117.767L27.5179 342.001L2.97933 319.473L15.0781 116.076Z" fill="#D9D9D9"/>
<path d="M369.501 102L354.001 107.448L359.334 339.082L385.501 318.499L369.501 102Z" fill="#D9D9D9"/>
<path d="M369 225.5C352.5 307 369.098 447 357.5 447C345.902 447 305 301.209 305 214.5C305 127.791 345.902 46 357.5 46C376 77.5 376 159 369 225.5Z" fill="#D9D9D9"/>
<path d="M13 319.5C9.39581 408.773 48.7672 443 60.5 443C72.2328 443 82 301.896 82 215.293C82 128.691 40.6224 47 28.8895 47C5 117 19.5 158.5 13 319.5Z" fill="#D9D9D9"/>
<path d="M360.965 68C360.965 87.33 334.966 85.5 316.465 85.5C297.963 85.5 282.965 69.83 282.965 50.5C282.965 31.17 297.963 15.5 316.465 15.5C334.966 15.5 365.501 38.5 360.965 68Z" fill="#D9D9D9"/>
<path d="M26.4528 68.2147C26.4528 87.8079 52.4501 85.953 70.9508 85.953C89.4515 85.953 104.449 70.0696 104.449 50.4765C104.449 30.8834 89.4515 15 70.9508 15C52.4501 15 21.9173 38.3131 26.4528 68.2147Z" fill="#D9D9D9"/>
<path d="M43.3898 38.3755C43.1769 32.7094 47.7127 28 53.3828 28H332.617C338.287 28 342.823 32.7094 342.61 38.3755L330.362 364.375C330.16 369.748 325.745 374 320.369 374H65.6313C60.2546 374 55.8403 369.748 55.6384 364.375L43.3898 38.3755Z" fill="#EEEDF1"/>
<path d="M387.23 316L386.311 331.717L293 391.5L387.23 316Z" fill="#265782"/>
<path d="M330 360.5V368H310L322.821 364.182L330 360.5Z" fill="#386997"/>
<path d="M2.00156 320.327L2.00155 336.5L97.0509 393.993L2.00156 320.327Z" fill="#265782"/>
<path d="M55 359.5L56 368H75L62.8205 364.182L55 359.5Z" fill="#386997"/>
<path d="M2 330L58.3077 366L81.6676 500.968C83.0019 508.678 73.6171 513.521 68.1061 507.967L21.6808 461.182C11.9907 451.417 6.31199 438.375 5.76506 424.628L2 330Z" fill="#265782"/>
<path d="M2 330L58.3077 366L81.6676 500.968C83.0019 508.678 73.6171 513.521 68.1061 507.967L21.6808 461.182C11.9907 451.417 6.31199 438.375 5.76506 424.628L2 330Z" fill="#265782"/>
<path d="M342.5 37.5C342.5 57.1061 299.378 71 197.302 71C95.2256 71 44 57.1061 44 37.5C44 17.8939 70 3.5 197.302 0C308 0 342.5 17.8939 342.5 37.5Z" fill="#EEEDF1"/>
<ellipse cx="191" cy="22" rx="19" ry="13" fill="#0E0404"/>
<ellipse cx="191" cy="21" rx="14" ry="10" fill="#BBBBBB"/>
<path d="M386 330L329.692 366L306.332 500.968C304.998 508.678 314.383 513.521 319.894 507.967L366.319 461.182C376.009 451.417 381.688 438.375 382.235 424.628L386 330Z" fill="#265782"/>
<path d="M386 330L329.692 366L306.332 500.968C304.998 508.678 314.383 513.521 319.894 507.967L366.319 461.182C376.009 451.417 381.688 438.375 382.235 424.628L386 330Z" fill="#265782"/>
<path d="M56 368H330L319.584 504.608C319.266 508.778 315.789 512 311.607 512H74.3932C70.2108 512 66.7343 508.778 66.4163 504.608L56 368Z" fill="url(#paint0_linear_182_511)"/>
<path opacity="0.9" d="M56.1214 73.6029C55.7813 62.3261 64.8303 53 76.1123 53H309.888C321.17 53 330.219 62.3261 329.879 73.6029L322.462 319.507C321.648 346.522 299.513 368 272.485 368H113.515C86.4874 368 64.3523 346.522 63.5375 319.507L56.1214 73.6029Z" fill="#121110"/>
<g filter="url(#filter0_i_182_511)">
<rect x="77" y="68" width="233" height="49" rx="5" fill="#3B3838"/>
</g>
<g filter="url(#filter1_i_182_511)">
<path d="M69.4048 134.389C69.1838 128.718 73.7217 124 79.3972 124H306.67C312.32 124 316.848 128.677 316.665 134.325L312.314 268.325C312.139 273.718 307.716 278 302.319 278H84.618C79.2466 278 74.8347 273.757 74.6256 268.389L69.4048 134.389Z" fill="#3B3838"/>
</g>
<ellipse cx="94" cy="336.5" rx="12" ry="11.5" fill="#0B0202"/>
<ellipse cx="49" cy="374.5" rx="3" ry="9.5" fill="#0B0202"/>
<ellipse cx="337" cy="373.5" rx="3" ry="9.5" fill="#0B0202"/>
<ellipse cx="124" cy="336.5" rx="12" ry="11.5" fill="#0B0202"/>
<ellipse cx="293" cy="336.5" rx="12" ry="11.5" fill="#0B0202"/>
<ellipse cx="263" cy="336.5" rx="12" ry="11.5" fill="#0B0202"/>
<ellipse cx="94" cy="336.5" rx="10" ry="9.5" fill="#666869"/>
<circle cx="86" cy="309" r="7" fill="#4A4B4B"/>
<circle cx="302" cy="309" r="7" fill="#4A4B4B"/>
<ellipse cx="48.5" cy="374" rx="1.5" ry="6" fill="#676869"/>
<ellipse cx="337.5" cy="373" rx="1.5" ry="6" fill="#676869"/>
<ellipse cx="124" cy="336.5" rx="10" ry="9.5" fill="#7B7D7E"/>
<ellipse cx="263" cy="336.5" rx="10" ry="9.5" fill="#7B7D7E"/>
<ellipse cx="293" cy="336.5" rx="10" ry="9.5" fill="#666869"/>
<line x1="62.4978" y1="363.919" x2="70.4978" y2="511.919" stroke="#282828" stroke-width="3"/>
<path d="M323 362L315.5 512" stroke="#282828" stroke-width="3"/>
<line x1="69" y1="367" x2="310" y2="367" stroke="#151515" stroke-width="2"/>
<line x1="55.3939" y1="361.081" x2="69.3939" y2="367.081" stroke="#151515" stroke-width="2"/>
<line x1="309.713" y1="367.042" x2="329.713" y2="361.042" stroke="#151515" stroke-width="2"/>
<path d="M329.391 361.208L387.413 317.535" stroke="black" stroke-width="2"/>
<path d="M56.332 362.166L2.00049 320" stroke="black" stroke-width="2"/>
<g filter="url(#filter2_i_182_511)">
<path d="M15 108.5L30.757 102.873C33.3329 101.953 36.0517 103.832 36.1017 106.566L39.7776 307.825C39.8685 312.801 34.2113 315.718 30.2104 312.758L3.93719 293.323C3.66458 293.122 3.51274 292.796 3.53383 292.457L15 108.5Z" fill="#343232"/>
</g>
<g filter="url(#filter3_i_182_511)">
<path d="M373 108.5L357.243 102.873C354.667 101.953 351.948 103.832 351.898 106.566L348.222 307.825C348.131 312.801 353.789 315.718 357.79 312.758L384.063 293.323C384.335 293.122 384.487 292.796 384.466 292.457L373 108.5Z" fill="#343232"/>
</g>
<rect y="109" width="27" height="43" rx="3" fill="#131313"/>
<path d="M2 142H23C24.1046 142 25 142.895 25 144V148C25 149.105 24.1046 150 23 150H4C2.89543 150 2 149.105 2 148V142Z" fill="#536C12"/>
<rect x="2" y="150" width="29" height="8" rx="2" transform="rotate(-90 2 150)" fill="#536C12"/>
<g filter="url(#filter4_i_182_511)">
<rect x="80" y="71" width="61" height="42" rx="5" fill="#DD5F04"/>
</g>
<path d="M97.365 93.885C97.365 92.1077 97.4797 90.359 97.709 88.639C97.967 86.919 98.397 85.2993 98.999 83.78C99.601 82.232 100.432 80.8703 101.493 79.695C102.554 78.491 103.887 77.5593 105.492 76.9C107.126 76.212 109.104 75.868 111.426 75.868C112.028 75.868 112.687 75.8967 113.404 75.954C114.149 76.0113 114.751 76.1117 115.21 76.255V79.48C114.694 79.308 114.106 79.179 113.447 79.093C112.816 79.007 112.171 78.964 111.512 78.964C109.534 78.964 107.886 79.2937 106.567 79.953C105.248 80.6123 104.202 81.5153 103.428 82.662C102.683 83.8087 102.138 85.1273 101.794 86.618C101.45 88.1087 101.235 89.6997 101.149 91.391H101.407C101.837 90.703 102.382 90.0867 103.041 89.542C103.7 88.9973 104.489 88.5673 105.406 88.252C106.352 87.9367 107.441 87.779 108.674 87.779C110.451 87.779 111.999 88.1517 113.318 88.897C114.665 89.6137 115.712 90.6743 116.457 92.079C117.202 93.455 117.575 95.132 117.575 97.11C117.575 99.2313 117.174 101.066 116.371 102.614C115.568 104.162 114.436 105.352 112.974 106.183C111.541 107.014 109.821 107.43 107.814 107.43C106.352 107.43 104.99 107.158 103.729 106.613C102.468 106.068 101.35 105.237 100.375 104.119C99.429 103.001 98.6837 101.596 98.139 99.905C97.623 98.185 97.365 96.1783 97.365 93.885ZM107.771 104.248C109.577 104.248 111.039 103.675 112.157 102.528C113.275 101.353 113.834 99.5467 113.834 97.11C113.834 95.1607 113.332 93.6127 112.329 92.466C111.354 91.3193 109.878 90.746 107.9 90.746C106.553 90.746 105.377 91.0327 104.374 91.606C103.371 92.1507 102.582 92.853 102.009 93.713C101.464 94.573 101.192 95.4617 101.192 96.379C101.192 97.325 101.321 98.2567 101.579 99.174C101.866 100.091 102.281 100.937 102.826 101.711C103.399 102.485 104.087 103.101 104.89 103.56C105.721 104.019 106.682 104.248 107.771 104.248Z" fill="#09068D"/>
<path d="M145.581 92.429C145.581 90.4243 145.891 88.7297 146.511 87.345C147.152 85.9603 147.958 84.8443 148.929 83.997C149.921 83.1497 151.016 82.54 152.215 82.168C153.434 81.7753 154.623 81.579 155.78 81.579C156.937 81.579 158.115 81.7443 159.314 82.075C160.533 82.385 161.629 82.9533 162.6 83.78C163.592 84.586 164.398 85.6917 165.018 87.097C165.659 88.5023 165.979 90.29 165.979 92.46C165.979 94.4853 165.659 96.1903 165.018 97.575C164.398 98.9597 163.592 100.086 162.6 100.954C161.629 101.822 160.533 102.452 159.314 102.845C158.115 103.217 156.937 103.403 155.78 103.403C154.623 103.403 153.434 103.217 152.215 102.845C151.016 102.473 149.921 101.863 148.929 101.016C147.958 100.169 147.152 99.0423 146.511 97.637C145.891 96.2317 145.581 94.4957 145.581 92.429ZM163.034 92.584C163.034 89.794 162.383 87.6757 161.081 86.229C159.8 84.7823 158.074 84.059 155.904 84.059C154.809 84.059 153.806 84.2347 152.897 84.586C152.008 84.9167 151.233 85.423 150.572 86.105C149.931 86.787 149.425 87.6447 149.053 88.678C148.702 89.6907 148.526 90.8893 148.526 92.274C148.526 95.064 149.167 97.203 150.448 98.691C151.75 100.179 153.486 100.923 155.656 100.923C156.731 100.923 157.723 100.758 158.632 100.427C159.541 100.076 160.316 99.5487 160.957 98.846C161.618 98.1433 162.125 97.2753 162.476 96.242C162.848 95.2087 163.034 93.9893 163.034 92.584ZM169.816 89.918C169.816 89.4427 169.764 88.6987 169.661 87.686L171.955 87.376L172.203 89.639H172.234C172.606 89.1637 172.967 88.7503 173.319 88.399C173.67 88.0477 174.032 87.748 174.404 87.5C174.796 87.2313 175.168 87.097 175.52 87.097C175.995 87.0763 176.656 87.128 177.504 87.252L176.946 89.639C176.264 89.515 175.788 89.4633 175.52 89.484C175.168 89.484 174.796 89.6493 174.404 89.98C174.011 90.3107 173.67 90.662 173.381 91.034C173.009 91.4887 172.647 92.0053 172.296 92.584V103H169.816V89.918ZM189.509 89.732C188.765 89.5253 188.186 89.4013 187.773 89.36C187.36 89.298 186.936 89.267 186.502 89.267C185.634 89.267 184.89 89.422 184.27 89.732C183.65 90.042 183.133 90.476 182.72 91.034C182.327 91.5713 182.038 92.2017 181.852 92.925C181.666 93.6277 181.573 94.382 181.573 95.188C181.573 95.9113 181.645 96.6347 181.79 97.358C181.955 98.0813 182.203 98.7323 182.534 99.311C182.865 99.8897 183.268 100.355 183.743 100.706C184.218 101.057 184.787 101.233 185.448 101.233C185.903 101.233 186.368 101.15 186.843 100.985C187.339 100.82 187.794 100.634 188.207 100.427C188.62 100.2 189.054 99.9207 189.509 99.59V89.732ZM189.54 101.76C189.065 102.091 188.6 102.37 188.145 102.597C187.711 102.804 187.225 102.99 186.688 103.155C186.171 103.32 185.665 103.403 185.169 103.403C183.226 103.403 181.697 102.721 180.581 101.357C179.486 99.9723 178.938 97.9573 178.938 95.312C178.938 93.7413 179.186 92.429 179.682 91.375C180.199 90.321 180.839 89.484 181.604 88.864C182.369 88.2233 183.185 87.7687 184.053 87.5C184.942 87.2313 185.758 87.097 186.502 87.097C186.874 87.097 187.267 87.128 187.68 87.19C188.093 87.2313 188.703 87.3553 189.509 87.562V79.781L191.989 79.502V100.179C191.989 100.468 191.989 100.778 191.989 101.109C192.01 101.419 192.03 101.729 192.051 102.039C192.092 102.349 192.134 102.669 192.175 103L189.788 103.248L189.54 101.76ZM194.564 87.407H197.292L201.074 98.412L201.756 100.861H201.787L202.5 98.412L206.53 87.407H209.134L203.089 103H200.299L194.564 87.407ZM211.653 87.376L214.133 87.097V103H211.653V87.376ZM211.25 82.943C211.25 82.4677 211.405 82.075 211.715 81.765C212.046 81.4343 212.449 81.269 212.924 81.269C213.42 81.269 213.833 81.4343 214.164 81.765C214.515 82.075 214.691 82.4677 214.691 82.943C214.691 83.4183 214.515 83.8213 214.164 84.152C213.833 84.462 213.42 84.617 212.924 84.617C212.449 84.617 212.046 84.462 211.715 84.152C211.405 83.8213 211.25 83.4183 211.25 82.943ZM222.213 82.757V87.407H226.708V89.422H222.213V97.699C222.213 98.381 222.223 98.9493 222.244 99.404C222.285 99.8587 222.357 100.22 222.461 100.489C222.564 100.758 222.709 100.954 222.895 101.078C223.081 101.181 223.318 101.233 223.608 101.233C224.393 101.212 225.302 100.923 226.336 100.365L227.08 102.256C226.398 102.711 225.757 103.01 225.158 103.155C224.579 103.32 224 103.403 223.422 103.403C222.058 103.403 221.097 103.021 220.539 102.256C220.001 101.471 219.733 100.179 219.733 98.381V89.422H216.881V87.407H219.733V83.067L222.213 82.757ZM238.31 89.949C237.442 89.6803 236.667 89.5047 235.985 89.422C235.323 89.3187 234.714 89.267 234.156 89.267C233.432 89.267 232.823 89.4427 232.327 89.794C231.851 90.1453 231.614 90.6 231.614 91.158C231.634 91.654 231.851 92.0777 232.265 92.429C232.678 92.7803 233.153 93.1007 233.691 93.39C234.249 93.6587 234.858 93.9583 235.52 94.289C236.202 94.6197 236.832 94.9917 237.411 95.405C238.01 95.8183 238.496 96.3143 238.868 96.893C239.24 97.4717 239.436 98.164 239.457 98.97C239.436 99.838 239.24 100.561 238.868 101.14C238.516 101.698 238.051 102.153 237.473 102.504C236.915 102.835 236.305 103.062 235.644 103.186C234.982 103.331 234.362 103.403 233.784 103.403C233.04 103.403 232.265 103.362 231.459 103.279C230.673 103.196 229.826 103.021 228.917 102.752L229.382 100.52C230.312 100.768 231.159 100.954 231.924 101.078C232.688 101.181 233.319 101.233 233.815 101.233C234.187 101.233 234.548 101.192 234.9 101.109C235.272 101.026 235.602 100.913 235.892 100.768C236.181 100.603 236.408 100.396 236.574 100.148C236.76 99.9 236.853 99.621 236.853 99.311C236.832 98.7323 236.636 98.2467 236.264 97.854C235.892 97.4407 235.406 97.079 234.807 96.769C234.228 96.4383 233.598 96.118 232.916 95.808C232.254 95.4773 231.624 95.1053 231.025 94.692C230.446 94.258 229.96 93.7517 229.568 93.173C229.175 92.5737 228.979 91.84 228.979 90.972C228.979 90.352 229.134 89.8043 229.444 89.329C229.774 88.833 230.188 88.43 230.684 88.12C231.2 87.7893 231.758 87.5413 232.358 87.376C232.978 87.19 233.577 87.097 234.156 87.097C234.755 87.097 235.427 87.1487 236.171 87.252C236.915 87.3347 237.772 87.5 238.744 87.748L238.31 89.949ZM242.804 79.781L245.284 79.502V93.483L252.197 87.407H255.607L248.849 93.328L255.855 103H252.724L247.02 94.909L245.284 96.428V103H242.804V79.781ZM258.366 90.507C258.386 90.073 258.335 89.1327 258.211 87.686L260.505 87.376L260.846 89.36C261.466 88.9467 262.075 88.585 262.675 88.275C263.295 87.965 263.925 87.6963 264.566 87.469C265.206 87.221 265.826 87.097 266.426 87.097C267.273 87.097 267.976 87.2003 268.534 87.407C269.112 87.593 269.577 87.9133 269.929 88.368C270.28 88.8227 270.528 89.422 270.673 90.166C270.838 90.91 270.921 91.84 270.921 92.956V103H268.441V93.235C268.441 92.615 268.43 92.0673 268.41 91.592C268.389 91.096 268.296 90.6827 268.131 90.352C267.986 90.0007 267.748 89.732 267.418 89.546C267.108 89.36 266.663 89.267 266.085 89.267C265.547 89.267 264.979 89.391 264.38 89.639C263.78 89.8663 263.191 90.135 262.613 90.445C262.034 90.755 261.445 91.1167 260.846 91.53V103H258.366V90.507ZM277.055 95.281C277.055 97.2857 277.499 98.784 278.388 99.776C279.297 100.747 280.516 101.233 282.046 101.233C283.554 101.233 284.732 100.747 285.58 99.776C286.427 98.8047 286.851 97.3477 286.851 95.405C286.851 93.3383 286.396 91.7987 285.487 90.786C284.598 89.7733 283.379 89.267 281.829 89.267C280.279 89.267 279.09 89.7733 278.264 90.786C277.458 91.778 277.055 93.2763 277.055 95.281ZM274.42 95.25C274.42 93.6793 274.668 92.3773 275.164 91.344C275.66 90.29 276.29 89.453 277.055 88.833C277.819 88.1923 278.636 87.748 279.504 87.5C280.392 87.2313 281.229 87.097 282.015 87.097C282.759 87.097 283.565 87.221 284.433 87.469C285.321 87.6963 286.138 88.12 286.882 88.74C287.626 89.3393 288.246 90.1557 288.742 91.189C289.238 92.2017 289.486 93.4933 289.486 95.064C289.486 96.6967 289.227 98.0503 288.711 99.125C288.215 100.2 287.584 101.057 286.82 101.698C286.055 102.318 285.228 102.752 284.34 103C283.451 103.269 282.624 103.403 281.86 103.403C281.074 103.403 280.248 103.279 279.38 103.031C278.512 102.783 277.706 102.359 276.962 101.76C276.238 101.14 275.629 100.303 275.133 99.249C274.657 98.195 274.42 96.862 274.42 95.25ZM277.768 82.943C277.768 82.4677 277.923 82.075 278.233 81.765C278.563 81.4343 278.966 81.269 279.442 81.269C279.938 81.269 280.351 81.4343 280.682 81.765C281.033 82.075 281.209 82.4677 281.209 82.943C281.209 83.4183 281.033 83.8213 280.682 84.152C280.351 84.462 279.938 84.617 279.442 84.617C278.966 84.617 278.563 84.462 278.233 84.152C277.923 83.8213 277.768 83.4183 277.768 82.943ZM283.069 82.943C283.069 82.4677 283.224 82.075 283.534 81.765C283.864 81.4343 284.267 81.269 284.743 81.269C285.239 81.269 285.652 81.4343 285.983 81.765C286.334 82.075 286.51 82.4677 286.51 82.943C286.51 83.4183 286.334 83.8213 285.983 84.152C285.652 84.462 285.239 84.617 284.743 84.617C284.267 84.617 283.864 84.462 283.534 84.152C283.224 83.8213 283.069 83.4183 283.069 82.943ZM293.088 79.781L295.568 79.502V93.483L302.481 87.407H305.891L299.133 93.328L306.139 103H303.008L297.304 94.909L295.568 96.428V103H293.088V79.781Z" fill="#BACA8F"/>
<defs>
<filter id="filter0_i_182_511" x="77" y="68" width="233" height="53" filterUnits="userSpaceOnUse" color-interpolation-filters="sRGB">
<feFlood flood-opacity="0" result="BackgroundImageFix"/>
<feBlend mode="normal" in="SourceGraphic" in2="BackgroundImageFix" result="shape"/>
<feColorMatrix in="SourceAlpha" type="matrix" values="0 0 0 0 0 0 0 0 0 0 0 0 0 0 0 0 0 0 127 0" result="hardAlpha"/>
<feOffset dy="4"/>
<feGaussianBlur stdDeviation="6"/>
<feComposite in2="hardAlpha" operator="arithmetic" k2="-1" k3="1"/>
<feColorMatrix type="matrix" values="0 0 0 0 0 0 0 0 0 0 0 0 0 0 0 0 0 0 0.32 0"/>
<feBlend mode="normal" in2="shape" result="effect1_innerShadow_182_511"/>
</filter>
<filter id="filter1_i_182_511" x="69.3971" y="124" width="247.273" height="158" filterUnits="userSpaceOnUse" color-interpolation-filters="sRGB">
<feFlood flood-opacity="0" result="BackgroundImageFix"/>
<feBlend mode="normal" in="SourceGraphic" in2="BackgroundImageFix" result="shape"/>
<feColorMatrix in="SourceAlpha" type="matrix" values="0 0 0 0 0 0 0 0 0 0 0 0 0 0 0 0 0 0 127 0" result="hardAlpha"/>
<feOffset dy="4"/>
<feGaussianBlur stdDeviation="6.5"/>
<feComposite in2="hardAlpha" operator="arithmetic" k2="-1" k3="1"/>
<feColorMatrix type="matrix" values="0 0 0 0 0 0 0 0 0 0 0 0 0 0 0 0 0 0 0.38 0"/>
<feBlend mode="normal" in2="shape" result="effect1_innerShadow_182_511"/>
</filter>
<filter id="filter2_i_182_511" x="3.53186" y="102.637" width="36.2468" height="215.31" filterUnits="userSpaceOnUse" color-interpolation-filters="sRGB">
<feFlood flood-opacity="0" result="BackgroundImageFix"/>
<feBlend mode="normal" in="SourceGraphic" in2="BackgroundImageFix" result="shape"/>
<feColorMatrix in="SourceAlpha" type="matrix" values="0 0 0 0 0 0 0 0 0 0 0 0 0 0 0 0 0 0 127 0" result="hardAlpha"/>
<feOffset dy="4"/>
<feGaussianBlur stdDeviation="2"/>
<feComposite in2="hardAlpha" operator="arithmetic" k2="-1" k3="1"/>
<feColorMatrix type="matrix" values="0 0 0 0 0 0 0 0 0 0 0 0 0 0 0 0 0 0 0.95 0"/>
<feBlend mode="normal" in2="shape" result="effect1_innerShadow_182_511"/>
</filter>
<filter id="filter3_i_182_511" x="348.221" y="102.637" width="36.2468" height="215.31" filterUnits="userSpaceOnUse" color-interpolation-filters="sRGB">
<feFlood flood-opacity="0" result="BackgroundImageFix"/>
<feBlend mode="normal" in="SourceGraphic" in2="BackgroundImageFix" result="shape"/>
<feColorMatrix in="SourceAlpha" type="matrix" values="0 0 0 0 0 0 0 0 0 0 0 0 0 0 0 0 0 0 127 0" result="hardAlpha"/>
<feOffset dy="4"/>
<feGaussianBlur stdDeviation="2"/>
<feComposite in2="hardAlpha" operator="arithmetic" k2="-1" k3="1"/>
<feColorMatrix type="matrix" values="0 0 0 0 0 0 0 0 0 0 0 0 0 0 0 0 0 0 0.95 0"/>
<feBlend mode="normal" in2="shape" result="effect1_innerShadow_182_511"/>
</filter>
<filter id="filter4_i_182_511" x="80" y="71" width="61" height="46" filterUnits="userSpaceOnUse" color-interpolation-filters="sRGB">
<feFlood flood-opacity="0" result="BackgroundImageFix"/>
<feBlend mode="normal" in="SourceGraphic" in2="BackgroundImageFix" result="shape"/>
<feColorMatrix in="SourceAlpha" type="matrix" values="0 0 0 0 0 0 0 0 0 0 0 0 0 0 0 0 0 0 127 0" result="hardAlpha"/>
<feOffset dy="4"/>
<feGaussianBlur stdDeviation="2"/>
<feComposite in2="hardAlpha" operator="arithmetic" k2="-1" k3="1"/>
<feColorMatrix type="matrix" values="0 0 0 0 0 0 0 0 0 0 0 0 0 0 0 0 0 0 0.25 0"/>
<feBlend mode="normal" in2="shape" result="effect1_innerShadow_182_511"/>
</filter>
<linearGradient id="paint0_linear_182_511" x1="193" y1="368" x2="193" y2="512" gradientUnits="userSpaceOnUse">
<stop stop-color="#386997"/>
<stop offset="1" stop-color="#265782"/>
</linearGradient>
</defs>
</svg>
